<mxfile host="Electron" modified="2023-10-07T16:32:39.798Z" agent="Mozilla/5.0 (Macintosh; Intel Mac OS X 10_15_7) AppleWebKit/537.36 (KHTML, like Gecko) draw.io/21.1.2 Chrome/106.0.5249.199 Electron/21.4.3 Safari/537.36" etag="Kk0KMbTh2J1ts_SWKfK0" version="21.1.2" type="device">
  <diagram name="Page-1" id="AJ8yHe8RfO9bZv4T66CS">
    <mxGraphModel dx="2947" dy="-722" grid="1" gridSize="10" guides="1" tooltips="1" connect="1" arrows="1" fold="1" page="1" pageScale="1" pageWidth="827" pageHeight="1169" math="0" shadow="0">
      <root>
        <mxCell id="0" />
        <mxCell id="1" parent="0" />
        <mxCell id="hFIrZmBlIVVq_UPJvhmh-118" value="" style="rounded=0;whiteSpace=wrap;html=1;" vertex="1" parent="1">
          <mxGeometry x="187.5" y="2760" width="900" height="1270" as="geometry" />
        </mxCell>
        <mxCell id="hFIrZmBlIVVq_UPJvhmh-119" value="Клиент" style="shape=umlActor;verticalLabelPosition=bottom;verticalAlign=top;html=1;" vertex="1" parent="1">
          <mxGeometry x="320" y="2990" width="30" height="60" as="geometry" />
        </mxCell>
        <mxCell id="hFIrZmBlIVVq_UPJvhmh-120" value="Менеджер&lt;br&gt;&amp;nbsp;зала&amp;nbsp;" style="shape=umlActor;verticalLabelPosition=bottom;verticalAlign=top;html=1;" vertex="1" parent="1">
          <mxGeometry x="320" y="3270" width="30" height="60" as="geometry" />
        </mxCell>
        <mxCell id="hFIrZmBlIVVq_UPJvhmh-121" value="Менеджер &lt;br&gt;ассортимента&amp;nbsp;" style="shape=umlActor;verticalLabelPosition=bottom;verticalAlign=top;html=1;" vertex="1" parent="1">
          <mxGeometry x="340" y="3520" width="30" height="60" as="geometry" />
        </mxCell>
        <mxCell id="hFIrZmBlIVVq_UPJvhmh-122" value="Оформить заказ" style="ellipse;whiteSpace=wrap;html=1;" vertex="1" parent="1">
          <mxGeometry x="410" y="2970" width="110" height="50" as="geometry" />
        </mxCell>
        <mxCell id="hFIrZmBlIVVq_UPJvhmh-123" value="Произвести оплату" style="ellipse;whiteSpace=wrap;html=1;" vertex="1" parent="1">
          <mxGeometry x="710" y="3040" width="110" height="50" as="geometry" />
        </mxCell>
        <mxCell id="hFIrZmBlIVVq_UPJvhmh-124" value="Оформить отказ" style="ellipse;whiteSpace=wrap;html=1;" vertex="1" parent="1">
          <mxGeometry x="410" y="3230" width="110" height="50" as="geometry" />
        </mxCell>
        <mxCell id="hFIrZmBlIVVq_UPJvhmh-125" value="Вернуть деньги" style="ellipse;whiteSpace=wrap;html=1;" vertex="1" parent="1">
          <mxGeometry x="595" y="3230" width="110" height="50" as="geometry" />
        </mxCell>
        <mxCell id="hFIrZmBlIVVq_UPJvhmh-126" value="Зарегистрироваться&lt;br&gt;в программе &lt;br&gt;лояльности" style="ellipse;whiteSpace=wrap;html=1;" vertex="1" parent="1">
          <mxGeometry x="285" y="2830" width="180" height="80" as="geometry" />
        </mxCell>
        <mxCell id="hFIrZmBlIVVq_UPJvhmh-127" value="Обратиться к менеджеру" style="ellipse;whiteSpace=wrap;html=1;" vertex="1" parent="1">
          <mxGeometry x="500" y="3065" width="115" height="60" as="geometry" />
        </mxCell>
        <mxCell id="hFIrZmBlIVVq_UPJvhmh-128" value="Получить талон" style="ellipse;whiteSpace=wrap;html=1;" vertex="1" parent="1">
          <mxGeometry x="790" y="3140" width="110" height="50" as="geometry" />
        </mxCell>
        <mxCell id="hFIrZmBlIVVq_UPJvhmh-129" value="include" style="endArrow=classic;html=1;rounded=0;dashed=1;entryX=0;entryY=0;entryDx=0;entryDy=0;exitX=1;exitY=1;exitDx=0;exitDy=0;" edge="1" parent="1" source="hFIrZmBlIVVq_UPJvhmh-152" target="hFIrZmBlIVVq_UPJvhmh-123">
          <mxGeometry x="-0.0198" width="50" height="50" relative="1" as="geometry">
            <mxPoint x="618" y="2988" as="sourcePoint" />
            <mxPoint x="530" y="3005" as="targetPoint" />
            <mxPoint as="offset" />
          </mxGeometry>
        </mxCell>
        <mxCell id="hFIrZmBlIVVq_UPJvhmh-130" value="extend" style="endArrow=classic;html=1;rounded=0;dashed=1;" edge="1" parent="1" source="hFIrZmBlIVVq_UPJvhmh-126" target="hFIrZmBlIVVq_UPJvhmh-122">
          <mxGeometry x="-0.0198" width="50" height="50" relative="1" as="geometry">
            <mxPoint x="575" y="2938" as="sourcePoint" />
            <mxPoint x="530" y="3005" as="targetPoint" />
            <mxPoint as="offset" />
          </mxGeometry>
        </mxCell>
        <mxCell id="hFIrZmBlIVVq_UPJvhmh-131" value="include" style="endArrow=classic;html=1;rounded=0;dashed=1;exitX=0.5;exitY=1;exitDx=0;exitDy=0;" edge="1" parent="1" source="hFIrZmBlIVVq_UPJvhmh-123" target="hFIrZmBlIVVq_UPJvhmh-128">
          <mxGeometry x="-0.0179" width="50" height="50" relative="1" as="geometry">
            <mxPoint x="514" y="2987" as="sourcePoint" />
            <mxPoint x="575" y="2938" as="targetPoint" />
            <mxPoint as="offset" />
          </mxGeometry>
        </mxCell>
        <mxCell id="hFIrZmBlIVVq_UPJvhmh-132" value="extend" style="endArrow=classic;html=1;rounded=0;dashed=1;exitX=0.5;exitY=0;exitDx=0;exitDy=0;" edge="1" parent="1" source="hFIrZmBlIVVq_UPJvhmh-127" target="hFIrZmBlIVVq_UPJvhmh-122">
          <mxGeometry x="-0.0288" width="50" height="50" relative="1" as="geometry">
            <mxPoint x="580" y="2920" as="sourcePoint" />
            <mxPoint x="502" y="2983" as="targetPoint" />
            <mxPoint as="offset" />
          </mxGeometry>
        </mxCell>
        <mxCell id="hFIrZmBlIVVq_UPJvhmh-133" value="Забрать заказ" style="ellipse;whiteSpace=wrap;html=1;" vertex="1" parent="1">
          <mxGeometry x="890" y="3050" width="110" height="50" as="geometry" />
        </mxCell>
        <mxCell id="hFIrZmBlIVVq_UPJvhmh-134" value="include" style="endArrow=classic;html=1;rounded=0;dashed=1;exitX=1;exitY=0;exitDx=0;exitDy=0;" edge="1" parent="1" source="hFIrZmBlIVVq_UPJvhmh-128" target="hFIrZmBlIVVq_UPJvhmh-133">
          <mxGeometry x="-0.0179" width="50" height="50" relative="1" as="geometry">
            <mxPoint x="815" y="3110" as="sourcePoint" />
            <mxPoint x="876" y="3154" as="targetPoint" />
            <mxPoint as="offset" />
          </mxGeometry>
        </mxCell>
        <mxCell id="hFIrZmBlIVVq_UPJvhmh-135" value="" style="endArrow=classic;html=1;rounded=0;entryX=0;entryY=0.5;entryDx=0;entryDy=0;exitX=1;exitY=0.3333333333333333;exitDx=0;exitDy=0;exitPerimeter=0;" edge="1" parent="1" source="hFIrZmBlIVVq_UPJvhmh-119" target="hFIrZmBlIVVq_UPJvhmh-122">
          <mxGeometry width="50" height="50" relative="1" as="geometry">
            <mxPoint x="415" y="2880" as="sourcePoint" />
            <mxPoint x="505" y="3180" as="targetPoint" />
          </mxGeometry>
        </mxCell>
        <mxCell id="hFIrZmBlIVVq_UPJvhmh-136" value="include" style="endArrow=classic;html=1;rounded=0;dashed=1;exitX=1;exitY=0.5;exitDx=0;exitDy=0;" edge="1" parent="1" source="hFIrZmBlIVVq_UPJvhmh-124" target="hFIrZmBlIVVq_UPJvhmh-125">
          <mxGeometry x="-0.0198" width="50" height="50" relative="1" as="geometry">
            <mxPoint x="530" y="3005" as="sourcePoint" />
            <mxPoint x="617" y="3005" as="targetPoint" />
            <mxPoint as="offset" />
          </mxGeometry>
        </mxCell>
        <mxCell id="hFIrZmBlIVVq_UPJvhmh-137" value="Мониторить систему и позиции из меню" style="ellipse;whiteSpace=wrap;html=1;" vertex="1" parent="1">
          <mxGeometry x="482.5" y="3300" width="150" height="80" as="geometry" />
        </mxCell>
        <mxCell id="hFIrZmBlIVVq_UPJvhmh-138" value="" style="endArrow=classic;html=1;rounded=0;entryX=0;entryY=0.5;entryDx=0;entryDy=0;exitX=1;exitY=0.3333333333333333;exitDx=0;exitDy=0;exitPerimeter=0;" edge="1" parent="1" source="hFIrZmBlIVVq_UPJvhmh-120" target="hFIrZmBlIVVq_UPJvhmh-124">
          <mxGeometry width="50" height="50" relative="1" as="geometry">
            <mxPoint x="360" y="3020" as="sourcePoint" />
            <mxPoint x="420" y="3005" as="targetPoint" />
          </mxGeometry>
        </mxCell>
        <mxCell id="hFIrZmBlIVVq_UPJvhmh-139" value="" style="endArrow=classic;html=1;rounded=0;exitX=1;exitY=0.3333333333333333;exitDx=0;exitDy=0;exitPerimeter=0;entryX=0;entryY=0.5;entryDx=0;entryDy=0;" edge="1" parent="1" source="hFIrZmBlIVVq_UPJvhmh-120" target="hFIrZmBlIVVq_UPJvhmh-137">
          <mxGeometry width="50" height="50" relative="1" as="geometry">
            <mxPoint x="360" y="3300" as="sourcePoint" />
            <mxPoint x="420" y="3265" as="targetPoint" />
          </mxGeometry>
        </mxCell>
        <mxCell id="hFIrZmBlIVVq_UPJvhmh-140" value="Редактировать позиции в меню" style="ellipse;whiteSpace=wrap;html=1;" vertex="1" parent="1">
          <mxGeometry x="435" y="3500" width="110" height="50" as="geometry" />
        </mxCell>
        <mxCell id="hFIrZmBlIVVq_UPJvhmh-141" value="" style="endArrow=classic;html=1;rounded=0;exitX=1;exitY=0.3333333333333333;exitDx=0;exitDy=0;exitPerimeter=0;entryX=0;entryY=0.5;entryDx=0;entryDy=0;" edge="1" parent="1" source="hFIrZmBlIVVq_UPJvhmh-121" target="hFIrZmBlIVVq_UPJvhmh-140">
          <mxGeometry width="50" height="50" relative="1" as="geometry">
            <mxPoint x="360" y="3300" as="sourcePoint" />
            <mxPoint x="468" y="3350" as="targetPoint" />
          </mxGeometry>
        </mxCell>
        <mxCell id="hFIrZmBlIVVq_UPJvhmh-142" value="Сотрудник&amp;nbsp;&lt;br&gt;производства&amp;nbsp;" style="shape=umlActor;verticalLabelPosition=bottom;verticalAlign=top;html=1;" vertex="1" parent="1">
          <mxGeometry x="330" y="3810" width="30" height="60" as="geometry" />
        </mxCell>
        <mxCell id="hFIrZmBlIVVq_UPJvhmh-143" value="Изменить цену" style="ellipse;whiteSpace=wrap;html=1;" vertex="1" parent="1">
          <mxGeometry x="585" y="3440" width="110" height="50" as="geometry" />
        </mxCell>
        <mxCell id="hFIrZmBlIVVq_UPJvhmh-144" value="Редактировать&lt;br&gt;составные оффреы&amp;nbsp;" style="ellipse;whiteSpace=wrap;html=1;" vertex="1" parent="1">
          <mxGeometry x="610" y="3510" width="165" height="70" as="geometry" />
        </mxCell>
        <mxCell id="hFIrZmBlIVVq_UPJvhmh-145" value="extend" style="endArrow=classic;html=1;rounded=0;dashed=1;exitX=0;exitY=1;exitDx=0;exitDy=0;entryX=1;entryY=0;entryDx=0;entryDy=0;" edge="1" parent="1" source="hFIrZmBlIVVq_UPJvhmh-143" target="hFIrZmBlIVVq_UPJvhmh-140">
          <mxGeometry x="-0.0224" width="50" height="50" relative="1" as="geometry">
            <mxPoint x="627.5" y="3449" as="sourcePoint" />
            <mxPoint x="562.5" y="3400" as="targetPoint" />
            <mxPoint as="offset" />
          </mxGeometry>
        </mxCell>
        <mxCell id="hFIrZmBlIVVq_UPJvhmh-146" value="extend" style="endArrow=classic;html=1;rounded=0;dashed=1;entryX=1;entryY=0.5;entryDx=0;entryDy=0;exitX=0;exitY=0.5;exitDx=0;exitDy=0;" edge="1" parent="1" source="hFIrZmBlIVVq_UPJvhmh-144" target="hFIrZmBlIVVq_UPJvhmh-140">
          <mxGeometry width="50" height="50" relative="1" as="geometry">
            <mxPoint x="590" y="3580" as="sourcePoint" />
            <mxPoint x="539" y="3517" as="targetPoint" />
            <mxPoint as="offset" />
          </mxGeometry>
        </mxCell>
        <mxCell id="hFIrZmBlIVVq_UPJvhmh-147" value="Редактировать тех карты" style="ellipse;whiteSpace=wrap;html=1;" vertex="1" parent="1">
          <mxGeometry x="444" y="3580" width="110" height="50" as="geometry" />
        </mxCell>
        <mxCell id="hFIrZmBlIVVq_UPJvhmh-148" value="Мониторить состояние роботов" style="ellipse;whiteSpace=wrap;html=1;" vertex="1" parent="1">
          <mxGeometry x="435" y="3770" width="150" height="80" as="geometry" />
        </mxCell>
        <mxCell id="hFIrZmBlIVVq_UPJvhmh-149" value="Мониторить кол-во полуфабрикатов" style="ellipse;whiteSpace=wrap;html=1;" vertex="1" parent="1">
          <mxGeometry x="432.5" y="3880" width="150" height="80" as="geometry" />
        </mxCell>
        <mxCell id="hFIrZmBlIVVq_UPJvhmh-150" value="" style="endArrow=classic;html=1;rounded=0;exitX=1;exitY=0.3333333333333333;exitDx=0;exitDy=0;exitPerimeter=0;entryX=0;entryY=0.5;entryDx=0;entryDy=0;" edge="1" parent="1" source="hFIrZmBlIVVq_UPJvhmh-142" target="hFIrZmBlIVVq_UPJvhmh-148">
          <mxGeometry width="50" height="50" relative="1" as="geometry">
            <mxPoint x="400" y="3817.5" as="sourcePoint" />
            <mxPoint x="440" y="3810" as="targetPoint" />
          </mxGeometry>
        </mxCell>
        <mxCell id="hFIrZmBlIVVq_UPJvhmh-151" value="" style="endArrow=classic;html=1;rounded=0;exitX=1;exitY=0.3333333333333333;exitDx=0;exitDy=0;exitPerimeter=0;entryX=0;entryY=0.5;entryDx=0;entryDy=0;" edge="1" parent="1" source="hFIrZmBlIVVq_UPJvhmh-142" target="hFIrZmBlIVVq_UPJvhmh-149">
          <mxGeometry width="50" height="50" relative="1" as="geometry">
            <mxPoint x="370" y="3840" as="sourcePoint" />
            <mxPoint x="445" y="3820" as="targetPoint" />
          </mxGeometry>
        </mxCell>
        <mxCell id="hFIrZmBlIVVq_UPJvhmh-152" value="Добавить в корзину&amp;nbsp;" style="ellipse;whiteSpace=wrap;html=1;" vertex="1" parent="1">
          <mxGeometry x="585" y="2970" width="110" height="50" as="geometry" />
        </mxCell>
        <mxCell id="hFIrZmBlIVVq_UPJvhmh-153" value="include" style="endArrow=classic;html=1;rounded=0;dashed=1;exitX=1;exitY=0.5;exitDx=0;exitDy=0;entryX=0;entryY=0.5;entryDx=0;entryDy=0;" edge="1" parent="1" source="hFIrZmBlIVVq_UPJvhmh-122" target="hFIrZmBlIVVq_UPJvhmh-152">
          <mxGeometry x="-0.033" width="50" height="50" relative="1" as="geometry">
            <mxPoint x="680" y="3005" as="sourcePoint" />
            <mxPoint x="570" y="2995" as="targetPoint" />
            <mxPoint as="offset" />
          </mxGeometry>
        </mxCell>
        <mxCell id="hFIrZmBlIVVq_UPJvhmh-154" value="Посмотреть меню" style="ellipse;whiteSpace=wrap;html=1;" vertex="1" parent="1">
          <mxGeometry x="522.5" y="2880" width="110" height="50" as="geometry" />
        </mxCell>
        <mxCell id="hFIrZmBlIVVq_UPJvhmh-155" value="extend" style="endArrow=classic;html=1;rounded=0;dashed=1;exitX=0;exitY=1;exitDx=0;exitDy=0;entryX=1;entryY=0;entryDx=0;entryDy=0;" edge="1" parent="1" source="hFIrZmBlIVVq_UPJvhmh-154" target="hFIrZmBlIVVq_UPJvhmh-122">
          <mxGeometry x="-0.0198" width="50" height="50" relative="1" as="geometry">
            <mxPoint x="412" y="2918" as="sourcePoint" />
            <mxPoint x="458" y="2981" as="targetPoint" />
            <mxPoint as="offset" />
          </mxGeometry>
        </mxCell>
        <mxCell id="hFIrZmBlIVVq_UPJvhmh-156" value="" style="endArrow=classic;html=1;rounded=0;exitX=1;exitY=0.3333333333333333;exitDx=0;exitDy=0;exitPerimeter=0;entryX=0;entryY=0.5;entryDx=0;entryDy=0;" edge="1" parent="1" source="hFIrZmBlIVVq_UPJvhmh-121" target="hFIrZmBlIVVq_UPJvhmh-147">
          <mxGeometry width="50" height="50" relative="1" as="geometry">
            <mxPoint x="380" y="3550" as="sourcePoint" />
            <mxPoint x="445" y="3535" as="targetPoint" />
          </mxGeometry>
        </mxCell>
        <mxCell id="hFIrZmBlIVVq_UPJvhmh-157" value="Text" style="text;html=1;strokeColor=none;fillColor=none;align=center;verticalAlign=middle;whiteSpace=wrap;rounded=0;" vertex="1" parent="1">
          <mxGeometry x="-30" y="2980" width="60" height="30" as="geometry" />
        </mxCell>
        <mxCell id="hFIrZmBlIVVq_UPJvhmh-158" value="&lt;b&gt;&lt;font style=&quot;font-size: 29px;&quot;&gt;Система обработки заказов в ресторане&lt;/font&gt;&lt;/b&gt;" style="text;html=1;strokeColor=none;fillColor=none;align=center;verticalAlign=middle;whiteSpace=wrap;rounded=0;" vertex="1" parent="1">
          <mxGeometry x="292.5" y="2780" width="690" height="30" as="geometry" />
        </mxCell>
      </root>
    </mxGraphModel>
  </diagram>
</mxfile>
